<svg width="124" height="148" viewBox="0 0 124 148" fill="none" xmlns="http://www.w3.org/2000/svg">
<g clip-path="url(#clip0_12165_52621)">
<circle cx="62" cy="62" r="59.625" fill="url(#paint0_linear_12165_52621)" stroke="#F7F7F8" stroke-width="0.75"/>
<g filter="url(#filter0_f_12165_52621)">
<path d="M581.75 45.7367C574.159 48.541 566.365 52.4742 558.211 57.4339C544.569 65.7324 530.926 74.031 517.283 75.9008C504.766 77.6163 490.501 69.2985 473.672 59.4857C452.445 47.1085 427.139 32.3528 396.116 32.3528C373.962 32.3528 354.959 42.3872 336.66 52.0501C309.02 66.6454 282.986 80.393 250.12 57.4339C195.495 19.2746 161.231 20.3284 116.042 62.0603C70.8522 103.792 34.0297 95.9972 3.97241 77.0062C1.06127 75.1669 -1.82041 73.2393 -4.68148 71.3255C-16.09 63.6942 -27.1706 56.2823 -38.4857 55.5592C-54.3456 54.4009 -70.2057 64.9245 -86.0656 75.4481C-98.5113 83.7061 -110.957 91.9642 -123.403 94.5773C-139.143 97.8823 -154.884 92.0777 -170.624 86.2732C-183.189 81.6397 -195.754 77.0062 -208.319 77.0062C-221.394 77.0062 -234.469 82.0237 -247.544 87.0411C-262.774 92.8856 -278.004 98.7301 -293.235 96.6445C-306.877 94.7764 -320.52 86.4853 -334.163 78.1942C-348.825 69.2832 -363.488 60.3722 -378.151 59.4352C-399.802 57.8539 -418.496 66.504 -437.145 75.133C-460.076 85.7438 -482.938 96.3228 -511.147 87.8072C-526.391 83.2052 -540.966 75.768 -555.347 68.4299C-589.651 50.9251 -622.852 33.9836 -661.404 57.4339C-675.047 65.7324 -688.69 74.031 -702.332 75.9008C-717.563 77.9882 -732.793 72.1385 -748.023 66.2888C-775.426 55.764 -797.481 55.3839 -824.943 65.5202C-840.684 71.3299 -856.424 77.1397 -872.165 73.8318C-884.61 71.2163 -897.056 62.9509 -909.501 54.6854C-943.704 31.9707 -966.018 31.8951 -999.539 56.2449C-1002.63 58.4869 -1005.83 60.9938 -1009.1 63.5528C-1020.83 72.7276 -1033.41 82.572 -1044.48 83.2798C-1128.48 83.2798 -1128.45 86.7938 -1127.26 254.607C-1127.1 277.275 -1126.91 302.94 -1126.91 332L581.75 332V45.7367Z" fill="url(#paint1_linear_12165_52621)" fill-opacity="0.5"/>
</g>
<g filter="url(#filter1_f_12165_52621)">
<path d="M724.25 45.7367C716.662 48.541 708.872 52.4742 700.722 57.4339C687.085 65.7324 673.448 74.031 659.812 75.9008C647.3 77.6163 633.041 69.2985 616.22 59.4857C595.002 47.1085 569.707 32.3528 538.698 32.3528C516.553 32.3528 497.558 42.3872 479.267 52.0501C451.64 66.6454 425.617 80.393 392.765 57.4339C338.165 19.2746 303.915 20.3284 258.746 62.0603C213.576 103.792 176.77 95.9972 146.726 77.0062C143.816 75.1669 140.936 73.2393 138.076 71.3255C126.672 63.6942 115.597 56.2823 104.286 55.5592C88.4335 54.4009 72.5804 64.9245 56.7274 75.4481C44.2871 83.7061 31.8469 91.9642 19.4069 94.5773C3.67322 97.8823 -12.0604 92.0777 -27.7941 86.2732C-40.3534 81.6397 -52.9126 77.0062 -65.472 77.0062C-78.5413 77.0062 -91.6107 82.0237 -104.68 87.0411C-119.904 92.8856 -135.127 98.7301 -150.351 96.6445C-163.988 94.7764 -177.624 86.4853 -191.261 78.1942C-205.917 69.2832 -220.573 60.3722 -235.23 59.4352C-256.872 57.8539 -275.557 66.504 -294.198 75.133C-317.119 85.7438 -339.971 96.3228 -368.167 87.8072C-383.405 83.2052 -397.973 75.768 -412.348 68.4299C-446.637 50.9251 -479.824 33.9836 -518.359 57.4339C-531.996 65.7324 -545.632 74.031 -559.269 75.9008C-574.493 77.9882 -589.716 72.1385 -604.94 66.2888C-632.33 55.764 -654.376 55.3839 -681.826 65.5202C-697.56 71.3299 -713.293 77.1397 -729.027 73.8318C-741.467 71.2163 -753.907 62.9509 -766.347 54.6854C-800.534 31.9707 -822.839 31.8951 -856.345 56.2449C-859.43 58.4869 -862.634 60.9938 -865.903 63.5528C-877.627 72.7276 -890.205 82.572 -901.267 83.2798C-985.228 83.2798 -985.203 86.7938 -984.008 254.607C-983.847 277.275 -983.664 302.94 -983.664 332L724.25 332V45.7367Z" fill="url(#paint2_linear_12165_52621)" fill-opacity="0.5"/>
</g>
<g filter="url(#filter2_f_12165_52621)">
<path d="M-87.2499 45.7367C-79.6589 48.541 -71.8651 52.4742 -63.7114 57.4339C-50.0687 65.7324 -36.4261 74.031 -22.7833 75.9008C-10.2663 77.6163 3.99878 69.2985 20.8278 59.4857C42.0549 47.1085 67.3612 32.3528 98.3838 32.3528C120.538 32.3528 139.541 42.3872 157.84 52.0501C185.48 66.6454 211.514 80.393 244.38 57.4339C299.005 19.2746 333.269 20.3284 378.458 62.0603C423.648 103.792 460.47 95.9972 490.528 77.0062C493.439 75.1669 496.32 73.2393 499.181 71.3255C510.59 63.6942 521.671 56.2823 532.986 55.5592C548.846 54.4009 564.706 64.9245 580.566 75.4481C593.011 83.7061 605.457 91.9642 617.903 94.5773C633.643 97.8823 649.384 92.0777 665.124 86.2732C677.689 81.6397 690.254 77.0062 702.819 77.0062C715.894 77.0062 728.969 82.0237 742.044 87.0411C757.274 92.8856 772.504 98.7301 787.735 96.6445C801.377 94.7764 815.02 86.4853 828.663 78.1942C843.325 69.2832 857.988 60.3722 872.651 59.4352C894.302 57.8539 912.996 66.504 931.645 75.133C954.576 85.7438 977.438 96.3228 1005.65 87.8072C1020.89 83.2052 1035.47 75.768 1049.85 68.4299C1084.15 50.9251 1117.35 33.9836 1155.9 57.4339C1169.55 65.7324 1183.19 74.031 1196.83 75.9008C1212.06 77.9882 1227.29 72.1385 1242.52 66.2888C1269.93 55.764 1291.98 55.3839 1319.44 65.5202C1335.18 71.3299 1350.92 77.1397 1366.66 73.8318C1379.11 71.2163 1391.56 62.9509 1404 54.6854C1438.2 31.9707 1460.52 31.8951 1494.04 56.2449C1497.13 58.4869 1500.33 60.9938 1503.6 63.5528C1515.33 72.7276 1527.91 82.572 1538.98 83.2798C1622.98 83.2798 1622.95 86.7938 1621.76 254.607C1621.6 277.275 1621.41 302.94 1621.41 332L-87.2499 332V45.7367Z" fill="url(#paint3_linear_12165_52621)" fill-opacity="0.5"/>
</g>
<g filter="url(#filter3_f_12165_52621)">
<path d="M-130 45.7367C-122.409 48.541 -114.615 52.4742 -106.461 57.4339C-92.8187 65.7324 -79.1761 74.031 -65.5333 75.9008C-53.0163 77.6163 -38.7512 69.2985 -21.9222 59.4857C-0.695087 47.1085 24.6112 32.3528 55.6338 32.3528C77.7882 32.3528 96.791 42.3872 115.09 52.0501C142.73 66.6454 168.764 80.393 201.63 57.4339C256.255 19.2746 290.519 20.3284 335.708 62.0603C380.898 103.792 417.72 95.9972 447.778 77.0062C450.689 75.1669 453.57 73.2393 456.431 71.3255C467.84 63.6942 478.921 56.2823 490.236 55.5592C506.096 54.4009 521.956 64.9245 537.816 75.4481C550.261 83.7061 562.707 91.9642 575.153 94.5773C590.893 97.8823 606.634 92.0777 622.374 86.2732C634.939 81.6397 647.504 77.0062 660.069 77.0062C673.144 77.0062 686.219 82.0237 699.294 87.0411C714.524 92.8856 729.754 98.7301 744.985 96.6445C758.627 94.7764 772.27 86.4853 785.913 78.1942C800.575 69.2832 815.238 60.3722 829.901 59.4352C851.552 57.8539 870.246 66.504 888.895 75.133C911.826 85.7438 934.688 96.3228 962.897 87.8072C978.141 83.2052 992.716 75.768 1007.1 68.4299C1041.4 50.9251 1074.6 33.9836 1113.15 57.4339C1126.8 65.7324 1140.44 74.031 1154.08 75.9008C1169.31 77.9882 1184.54 72.1385 1199.77 66.2888C1227.18 55.764 1249.23 55.3839 1276.69 65.5202C1292.43 71.3299 1308.17 77.1397 1323.91 73.8318C1336.36 71.2163 1348.81 62.9509 1361.25 54.6854C1395.45 31.9707 1417.77 31.8951 1451.29 56.2449C1454.38 58.4869 1457.58 60.9938 1460.85 63.5528C1472.58 72.7276 1485.16 82.572 1496.23 83.2798C1580.23 83.2798 1580.2 86.7938 1579.01 254.607C1578.85 277.275 1578.66 302.94 1578.66 332L-130 332V45.7367Z" fill="url(#paint4_linear_12165_52621)" fill-opacity="0.5"/>
</g>
<g opacity="0.6">
<path d="M53.8301 82.3755C54.0065 82.5227 54.4187 82.817 54.8775 83.1574C55.2369 83.4241 55.6013 83.645 56.0299 83.9552C56.4063 84.2277 56.7537 84.5314 57.1087 84.6946C57.489 84.8693 57.9345 85.152 58.379 85.3005C58.8692 85.4642 59.2358 85.4782 59.738 85.5518C60.1216 85.608 60.5354 85.6555 61.4764 85.7291C64.6346 85.976 65.1149 85.6555 65.5302 85.5083C65.8695 85.3881 66.239 85.3311 66.6676 85.1391C67.0612 84.9629 67.48 84.7992 67.8351 84.5926C68.1905 84.3858 68.5438 84.1503 68.9135 83.8688C69.331 83.5509 69.8416 82.9996 70.2436 82.5542C70.4054 82.3773 70.5543 82.1991 70.6722 82.0223C70.7316 81.9332 70.7901 81.8454 70.8504 81.755" stroke="black" stroke-width="1.125" stroke-linecap="round"/>
<path d="M45.1426 64.7416C45.2303 64.918 45.584 65.2717 45.8655 65.6121C46.1351 65.9382 46.6177 66.2167 47.3118 66.6019C47.8121 66.8795 48.7399 67.3089 49.411 67.5633C49.8415 67.7265 50.2824 67.667 50.7841 67.7552C51.719 67.9195 52.6156 67.7273 53.8247 67.3293C55.1452 66.8946 55.8335 65.7824 56.3113 65.1126C56.4292 64.9207 56.548 64.7133 56.6513 64.4921C56.696 64.3879 56.7253 64.3002 56.7554 64.1211" stroke="black" stroke-width="1.125" stroke-linecap="round"/>
<path d="M68.375 64.25C68.4636 64.3378 68.2482 64.5306 68.9423 65.3298C69.729 66.2356 70.9377 66.9277 71.9097 67.3696C72.6566 67.7091 73.2434 67.6962 73.9176 67.7406C76.7832 67.929 77.1431 67.6085 77.542 67.3727C78.139 67.0197 78.4728 66.7521 78.8571 66.398C79.1217 66.1334 79.4186 65.7486 79.6695 65.3502C79.7741 65.1857 79.8326 65.098 80.0702 64.8303" stroke="black" stroke-width="1.125" stroke-linecap="round"/>
</g>
<g filter="url(#filter4_f_12165_52621)">
<circle cx="45.875" cy="76.625" r="4.875" fill="#FF6868" fill-opacity="0.25"/>
</g>
<g filter="url(#filter5_f_12165_52621)">
<circle cx="80.375" cy="76.625" r="4.875" fill="#FF6868" fill-opacity="0.25"/>
</g>
</g>
<rect x="2" y="2" width="120" height="120" rx="60" stroke="#F7F7F8" stroke-width="2.25"/>
<g filter="url(#filter6_f_12165_52621)">
<ellipse cx="62" cy="141" rx="30" ry="3" fill="#D9D9D9"/>
</g>
<defs>
<filter id="filter0_f_12165_52621" x="-1138.75" y="18.5" width="1731.75" height="324.75" filterUnits="userSpaceOnUse" color-interpolation-filters="sRGB">
<feFlood flood-opacity="0" result="BackgroundImageFix"/>
<feBlend mode="normal" in="SourceGraphic" in2="BackgroundImageFix" result="shape"/>
<feGaussianBlur stdDeviation="5.625" result="effect1_foregroundBlur_12165_52621"/>
</filter>
<filter id="filter1_f_12165_52621" x="-995.5" y="18.5" width="1731" height="324.75" filterUnits="userSpaceOnUse" color-interpolation-filters="sRGB">
<feFlood flood-opacity="0" result="BackgroundImageFix"/>
<feBlend mode="normal" in="SourceGraphic" in2="BackgroundImageFix" result="shape"/>
<feGaussianBlur stdDeviation="5.625" result="effect1_foregroundBlur_12165_52621"/>
</filter>
<filter id="filter2_f_12165_52621" x="-98.5" y="18.5" width="1731.75" height="324.75" filterUnits="userSpaceOnUse" color-interpolation-filters="sRGB">
<feFlood flood-opacity="0" result="BackgroundImageFix"/>
<feBlend mode="normal" in="SourceGraphic" in2="BackgroundImageFix" result="shape"/>
<feGaussianBlur stdDeviation="5.625" result="effect1_foregroundBlur_12165_52621"/>
</filter>
<filter id="filter3_f_12165_52621" x="-141.25" y="18.5" width="1731.75" height="324.75" filterUnits="userSpaceOnUse" color-interpolation-filters="sRGB">
<feFlood flood-opacity="0" result="BackgroundImageFix"/>
<feBlend mode="normal" in="SourceGraphic" in2="BackgroundImageFix" result="shape"/>
<feGaussianBlur stdDeviation="5.625" result="effect1_foregroundBlur_12165_52621"/>
</filter>
<filter id="filter4_f_12165_52621" x="38" y="68.75" width="15.75" height="15.75" filterUnits="userSpaceOnUse" color-interpolation-filters="sRGB">
<feFlood flood-opacity="0" result="BackgroundImageFix"/>
<feBlend mode="normal" in="SourceGraphic" in2="BackgroundImageFix" result="shape"/>
<feGaussianBlur stdDeviation="1.5" result="effect1_foregroundBlur_12165_52621"/>
</filter>
<filter id="filter5_f_12165_52621" x="72.5" y="68.75" width="15.75" height="15.75" filterUnits="userSpaceOnUse" color-interpolation-filters="sRGB">
<feFlood flood-opacity="0" result="BackgroundImageFix"/>
<feBlend mode="normal" in="SourceGraphic" in2="BackgroundImageFix" result="shape"/>
<feGaussianBlur stdDeviation="1.5" result="effect1_foregroundBlur_12165_52621"/>
</filter>
<filter id="filter6_f_12165_52621" x="28" y="134" width="68" height="14" filterUnits="userSpaceOnUse" color-interpolation-filters="sRGB">
<feFlood flood-opacity="0" result="BackgroundImageFix"/>
<feBlend mode="normal" in="SourceGraphic" in2="BackgroundImageFix" result="shape"/>
<feGaussianBlur stdDeviation="2" result="effect1_foregroundBlur_12165_52621"/>
</filter>
<linearGradient id="paint0_linear_12165_52621" x1="62" y1="109.625" x2="62" y2="7.99999" gradientUnits="userSpaceOnUse">
<stop stop-color="#B3B3B3"/>
<stop offset="1" stop-color="white"/>
</linearGradient>
<linearGradient id="paint1_linear_12165_52621" x1="439.625" y1="29.7499" x2="-1163.57" y2="-119.356" gradientUnits="userSpaceOnUse">
<stop stop-color="#A29AEA"/>
<stop offset="0.32" stop-color="#C17EC9"/>
<stop offset="0.5" stop-color="#D482B9"/>
<stop offset="0.73" stop-color="#E98BAC"/>
<stop offset="1" stop-color="#FDC6D1"/>
</linearGradient>
<linearGradient id="paint2_linear_12165_52621" x1="-724.148" y1="58.5484" x2="405.507" y2="584.651" gradientUnits="userSpaceOnUse">
<stop stop-color="#A29AEA"/>
<stop offset="0.32" stop-color="#C17EC9"/>
<stop offset="0.5" stop-color="#D482B9"/>
<stop offset="0.73" stop-color="#E98BAC"/>
<stop offset="1" stop-color="#FDC6D1"/>
</linearGradient>
<linearGradient id="paint3_linear_12165_52621" x1="-43.7499" y1="29.75" x2="1568.34" y2="-291.32" gradientUnits="userSpaceOnUse">
<stop stop-color="#A29AEA"/>
<stop offset="0.32" stop-color="#C17EC9"/>
<stop offset="0.5" stop-color="#D482B9"/>
<stop offset="0.73" stop-color="#E98BAC"/>
<stop offset="1" stop-color="#FDC6D1"/>
</linearGradient>
<linearGradient id="paint4_linear_12165_52621" x1="1319.03" y1="58.5484" x2="189.06" y2="585.031" gradientUnits="userSpaceOnUse">
<stop stop-color="#A29AEA"/>
<stop offset="0.32" stop-color="#C17EC9"/>
<stop offset="0.5" stop-color="#D482B9"/>
<stop offset="0.73" stop-color="#E98BAC"/>
<stop offset="1" stop-color="#FDC6D1"/>
</linearGradient>
<clipPath id="clip0_12165_52621">
<rect x="2" y="2" width="120" height="120" rx="60" fill="white"/>
</clipPath>
</defs>
</svg>
