<svg width="197" height="197" viewBox="0 0 197 197" fill="none" xmlns="http://www.w3.org/2000/svg">
<path opacity="0.1" d="M98.8999 196.54C153.002 196.54 196.86 152.682 196.86 98.58C196.86 44.4782 153.002 0.619995 98.8999 0.619995C44.7981 0.619995 0.939941 44.4782 0.939941 98.58C0.939941 152.682 44.7981 196.54 98.8999 196.54Z" fill="url(#paint0_linear_9289_10053)"/>
<mask id="mask0_9289_10053" style="mask-type:luminance" maskUnits="userSpaceOnUse" x="0" y="0" width="197" height="197">
<path d="M98.8999 196.54C153.002 196.54 196.86 152.682 196.86 98.58C196.86 44.4782 153.002 0.619995 98.8999 0.619995C44.7981 0.619995 0.939941 44.4782 0.939941 98.58C0.939941 152.682 44.7981 196.54 98.8999 196.54Z" fill="white"/>
</mask>
<g mask="url(#mask0_9289_10053)">
<path opacity="0.5" d="M49.69 105.27C56.96 113.6 61.57 123.87 67.39 133.27C73.21 142.67 80.92 151.7 91.44 155.1C103.05 158.85 116.06 154.88 125.91 147.67C135.76 140.46 143.03 130.36 150.06 120.38C157.09 110.4 164.19 100.21 173.81 92.7C188.35 81.36 208.23 77.2 226.1 81.77C230.55 82.91 235.27 84.89 237.34 89C238.89 92.08 238.63 95.73 238.2 99.15C234.6 128.33 222.05 156.34 202.67 178.45C183.29 200.56 157.16 216.67 128.71 224.05C106.12 229.91 81.94 230.29 59.56 223.7C37.18 217.11 16.72 203.35 3.34005 184.23C-13.46 160.23 -41.36 80.29 13.97 86.83C27.54 88.43 40.68 94.93 49.7 105.27H49.69Z" fill="url(#paint1_linear_9289_10053)"/>
<path opacity="0.2" d="M-13.99 119.05C-13.99 119.05 -2.71999 124.08 5.55001 111.21C13.83 98.33 26.18 31.9 48.32 33.48C74.03 35.31 69.29 88.95 97.47 116.19C122.69 140.57 148.88 145.33 233.29 129.69C233.29 129.69 232.88 177.85 191.1 203.63C149.32 229.41 158.1 225.41 109.65 227.59C70.35 229.36 -10.53 198.14 -13.99 119.05Z" fill="url(#paint2_linear_9289_10053)"/>
<path opacity="0.35" d="M-12.3899 94.57C-12.3899 94.57 100.91 216.85 205.94 86.51C205.94 86.51 192.59 171.74 142.25 189.28C91.9101 206.82 28.5301 208.03 -12.3899 94.57Z" fill="url(#paint3_linear_9289_10053)"/>
<path opacity="0.6" d="M-7.77 191.05C-16.23 184.2 -18.48 172.44 -20.18 161.69C-21.25 154.9 -29.05 132.79 -18.97 130.58C-14.22 129.54 -8.32 132.06 -3.17 131.3C2.36 130.47 8.07 128.44 12.74 125.33C23.67 118.48 31.61 107.89 39.68 97.84C47.75 87.78 56.62 77.71 68.44 72.54C80.26 67.37 95.8 68.54 103.95 78.53C118.54 96.41 101.04 127.03 115.54 144.97C121.81 152.73 132.29 155.49 142.13 157.14C167.14 161.31 192.86 161.11 217.8 156.55C207.45 179.97 189.35 199.65 167.58 213.13C145.81 226.61 120.52 233.99 94.98 235.76C81.9 236.67 29.75 215.47 18.25 209.18" fill="url(#paint4_linear_9289_10053)"/>
<path opacity="0.75" d="M209.28 114.39C209.28 114.39 198.01 119.42 189.74 106.55C181.46 93.67 169.11 27.24 146.97 28.82C121.26 30.65 126 84.29 97.82 111.53C72.6 135.91 46.41 140.67 -38 125.03C-38 125.03 -37.59 173.19 4.19 198.97C45.97 224.75 37.19 220.75 85.64 222.93C124.94 224.7 205.82 193.48 209.28 114.39Z" fill="url(#paint5_linear_9289_10053)"/>
</g>
<mask id="mask1_9289_10053" style="mask-type:luminance" maskUnits="userSpaceOnUse" x="1" y="1" width="196" height="196">
<path d="M98.96 196.92C153.062 196.92 196.92 153.062 196.92 98.96C196.92 44.8582 153.062 1 98.96 1C44.8582 1 1 44.8582 1 98.96C1 153.062 44.8582 196.92 98.96 196.92Z" fill="white"/>
</mask>
<g mask="url(#mask1_9289_10053)">
<path opacity="0.5" d="M49.7501 105.65C57.0201 113.98 61.6301 124.25 67.4501 133.65C73.2701 143.05 80.9801 152.08 91.5001 155.48C103.11 159.23 116.12 155.26 125.97 148.05C135.82 140.84 143.09 130.74 150.12 120.76C157.15 110.78 164.25 100.59 173.87 93.08C188.41 81.74 208.29 77.58 226.16 82.15C230.61 83.29 235.33 85.27 237.4 89.38C238.95 92.46 238.69 96.11 238.26 99.53C234.66 128.71 222.11 156.72 202.73 178.83C183.35 200.94 157.22 217.05 128.77 224.43C106.18 230.29 82.0001 230.67 59.6201 224.08C37.2401 217.49 16.7801 203.73 3.4001 184.61C-13.3999 160.61 -41.2999 80.67 14.0301 87.21C27.6001 88.81 40.7401 95.31 49.7601 105.65H49.7501Z" fill="url(#paint6_linear_9289_10053)"/>
<path opacity="0.2" d="M-13.9299 119.43C-13.9299 119.43 -2.65993 124.46 5.61007 111.59C13.8901 98.71 26.2401 32.28 48.3801 33.86C74.0901 35.69 69.3501 89.33 97.5301 116.57C122.75 140.95 148.94 145.71 233.35 130.07C233.35 130.07 232.94 178.23 191.16 204.01C149.38 229.79 158.16 225.79 109.71 227.97C70.4101 229.74 -10.4699 198.52 -13.9299 119.43Z" fill="url(#paint7_linear_9289_10053)"/>
<path opacity="0.35" d="M-12.3298 94.95C-12.3298 94.95 100.97 217.23 206 86.89C206 86.89 192.65 172.12 142.31 189.66C91.9702 207.2 28.5902 208.41 -12.3298 94.95Z" fill="url(#paint8_linear_9289_10053)"/>
<path opacity="0.6" d="M-7.70994 191.43C-16.1699 184.58 -18.4199 172.82 -20.1199 162.07C-21.1899 155.28 -28.9899 133.17 -18.9099 130.96C-14.1599 129.92 -8.25994 132.44 -3.10994 131.68C2.42006 130.85 8.13006 128.82 12.8001 125.71C23.7301 118.86 31.6701 108.27 39.7401 98.22C47.8101 88.16 56.6801 78.09 68.5001 72.92C80.3201 67.75 95.8601 68.92 104.01 78.91C118.6 96.79 101.1 127.41 115.6 145.35C121.87 153.11 132.35 155.87 142.19 157.52C167.2 161.69 192.92 161.49 217.86 156.93C207.51 180.35 189.41 200.03 167.64 213.51C145.87 226.99 120.58 234.37 95.0401 236.14C81.9601 237.05 29.8101 215.85 18.3101 209.56" fill="url(#paint9_linear_9289_10053)"/>
<path opacity="0.75" d="M209.34 114.77C209.34 114.77 198.07 119.8 189.8 106.93C181.52 94.05 169.17 27.62 147.03 29.2C121.32 31.03 126.06 84.67 97.8801 111.91C72.6601 136.29 46.4701 141.05 -37.9399 125.41C-37.9399 125.41 -37.5299 173.57 4.25006 199.35C46.0301 225.13 37.2501 221.13 85.7001 223.31C125 225.08 205.88 193.86 209.34 114.77Z" fill="url(#paint10_linear_9289_10053)"/>
</g>
<defs>
<linearGradient id="paint0_linear_9289_10053" x1="-85.2701" y1="155.99" x2="171.38" y2="75.99" gradientUnits="userSpaceOnUse">
<stop stop-color="#5D82C2"/>
<stop offset="0.23" stop-color="#45A0C3"/>
<stop offset="0.31" stop-color="#4D98BF"/>
<stop offset="0.45" stop-color="#6483B6"/>
<stop offset="0.61" stop-color="#8961A7"/>
<stop offset="0.65" stop-color="#9359A3"/>
<stop offset="0.8" stop-color="#AB6AAA"/>
<stop offset="1" stop-color="#D486B8"/>
</linearGradient>
<linearGradient id="paint1_linear_9289_10053" x1="-72.1" y1="198.24" x2="184.54" y2="118.24" gradientUnits="userSpaceOnUse">
<stop stop-color="#5D82C2"/>
<stop offset="0.23" stop-color="#45A0C3"/>
<stop offset="0.31" stop-color="#4D98BF"/>
<stop offset="0.45" stop-color="#6483B6"/>
<stop offset="0.61" stop-color="#8961A7"/>
<stop offset="0.65" stop-color="#9359A3"/>
<stop offset="0.8" stop-color="#AB6AAA"/>
<stop offset="1" stop-color="#D486B8"/>
</linearGradient>
<linearGradient id="paint2_linear_9289_10053" x1="-76.59" y1="183.82" x2="180.05" y2="103.82" gradientUnits="userSpaceOnUse">
<stop stop-color="#5D82C2"/>
<stop offset="0.23" stop-color="#45A0C3"/>
<stop offset="0.31" stop-color="#4D98BF"/>
<stop offset="0.45" stop-color="#6483B6"/>
<stop offset="0.61" stop-color="#8961A7"/>
<stop offset="0.65" stop-color="#9359A3"/>
<stop offset="0.8" stop-color="#AB6AAA"/>
<stop offset="1" stop-color="#D486B8"/>
</linearGradient>
<linearGradient id="paint3_linear_9289_10053" x1="-75.9499" y1="185.9" x2="180.7" y2="105.9" gradientUnits="userSpaceOnUse">
<stop stop-color="#5D82C2"/>
<stop offset="0.23" stop-color="#45A0C3"/>
<stop offset="0.31" stop-color="#4D98BF"/>
<stop offset="0.45" stop-color="#6483B6"/>
<stop offset="0.61" stop-color="#8961A7"/>
<stop offset="0.65" stop-color="#9359A3"/>
<stop offset="0.8" stop-color="#AB6AAA"/>
<stop offset="1" stop-color="#D486B8"/>
</linearGradient>
<linearGradient id="paint4_linear_9289_10053" x1="-70.35" y1="203.86" x2="186.29" y2="123.85" gradientUnits="userSpaceOnUse">
<stop stop-color="#5D82C2"/>
<stop offset="0.23" stop-color="#45A0C3"/>
<stop offset="0.31" stop-color="#4D98BF"/>
<stop offset="0.45" stop-color="#6483B6"/>
<stop offset="0.61" stop-color="#8961A7"/>
<stop offset="0.65" stop-color="#9359A3"/>
<stop offset="0.8" stop-color="#AB6AAA"/>
<stop offset="1" stop-color="#D486B8"/>
</linearGradient>
<linearGradient id="paint5_linear_9289_10053" x1="-75.2" y1="188.32" x2="181.45" y2="108.31" gradientUnits="userSpaceOnUse">
<stop stop-color="#5D82C2"/>
<stop offset="0.23" stop-color="#45A0C3"/>
<stop offset="0.31" stop-color="#4D98BF"/>
<stop offset="0.45" stop-color="#6483B6"/>
<stop offset="0.61" stop-color="#8961A7"/>
<stop offset="0.65" stop-color="#9359A3"/>
<stop offset="0.8" stop-color="#AB6AAA"/>
<stop offset="1" stop-color="#D486B8"/>
</linearGradient>
<linearGradient id="paint6_linear_9289_10053" x1="-72.0399" y1="198.62" x2="184.6" y2="118.62" gradientUnits="userSpaceOnUse">
<stop stop-color="#5D82C2"/>
<stop offset="0.23" stop-color="#45A0C3"/>
<stop offset="0.31" stop-color="#4D98BF"/>
<stop offset="0.45" stop-color="#6483B6"/>
<stop offset="0.61" stop-color="#8961A7"/>
<stop offset="0.65" stop-color="#9359A3"/>
<stop offset="0.8" stop-color="#AB6AAA"/>
<stop offset="1" stop-color="#D486B8"/>
</linearGradient>
<linearGradient id="paint7_linear_9289_10053" x1="-76.5299" y1="184.2" x2="180.11" y2="104.2" gradientUnits="userSpaceOnUse">
<stop stop-color="#5D82C2"/>
<stop offset="0.23" stop-color="#45A0C3"/>
<stop offset="0.31" stop-color="#4D98BF"/>
<stop offset="0.45" stop-color="#6483B6"/>
<stop offset="0.61" stop-color="#8961A7"/>
<stop offset="0.65" stop-color="#9359A3"/>
<stop offset="0.8" stop-color="#AB6AAA"/>
<stop offset="1" stop-color="#D486B8"/>
</linearGradient>
<linearGradient id="paint8_linear_9289_10053" x1="-75.8898" y1="186.28" x2="180.76" y2="106.28" gradientUnits="userSpaceOnUse">
<stop stop-color="#5D82C2"/>
<stop offset="0.23" stop-color="#45A0C3"/>
<stop offset="0.31" stop-color="#4D98BF"/>
<stop offset="0.45" stop-color="#6483B6"/>
<stop offset="0.61" stop-color="#8961A7"/>
<stop offset="0.65" stop-color="#9359A3"/>
<stop offset="0.8" stop-color="#AB6AAA"/>
<stop offset="1" stop-color="#D486B8"/>
</linearGradient>
<linearGradient id="paint9_linear_9289_10053" x1="-70.2899" y1="204.24" x2="186.35" y2="124.23" gradientUnits="userSpaceOnUse">
<stop stop-color="#5D82C2"/>
<stop offset="0.23" stop-color="#45A0C3"/>
<stop offset="0.31" stop-color="#4D98BF"/>
<stop offset="0.45" stop-color="#6483B6"/>
<stop offset="0.61" stop-color="#8961A7"/>
<stop offset="0.65" stop-color="#9359A3"/>
<stop offset="0.8" stop-color="#AB6AAA"/>
<stop offset="1" stop-color="#D486B8"/>
</linearGradient>
<linearGradient id="paint10_linear_9289_10053" x1="-75.1399" y1="188.7" x2="181.51" y2="108.69" gradientUnits="userSpaceOnUse">
<stop stop-color="#5D82C2"/>
<stop offset="0.23" stop-color="#45A0C3"/>
<stop offset="0.31" stop-color="#4D98BF"/>
<stop offset="0.45" stop-color="#6483B6"/>
<stop offset="0.61" stop-color="#8961A7"/>
<stop offset="0.65" stop-color="#9359A3"/>
<stop offset="0.8" stop-color="#AB6AAA"/>
<stop offset="1" stop-color="#D486B8"/>
</linearGradient>
</defs>
</svg>
